<svg xmlns="http://www.w3.org/2000/svg" viewBox="9.8 316.6 1004.4 134.3"><path fill="#E20031" d="M144.1,383.8c0,37-30.2,67.2-67.2,67.2S9.8,421.2,9.8,383.8c0-37,30.2-67.2,67.2-67.2 S144.1,346.8,144.1,383.8"/><path fill="#FFFFFF" d="M122.8,374.4l-44.2-34l0,0c0,0,0,0-0.4,0c0,0,0,0-0.4,0c0,0,0,0-0.4,0c0,0,0,0-0.4,0c0,0,0,0-0.4,0 c0,0,0,0-0.4,0c0,0,0,0-0.4,0c0,0,0,0-0.4,0c0,0,0,0-0.4,0c0,0,0,0-0.4,0c0,0,0,0-0.4,0c0,0,0,0-0.4,0l0,0l-44.2,34 c-1.3,1.3-1.7,3.4-0.9,4.7c0.4,0.9,1.7,1.3,2.6,1.3c0.9,0,1.3,0,1.7-0.9l42.5-32.3l42.5,32.3c0.4,0.4,1.3,0.9,1.7,0.9 c0.9,0,2.1-0.4,2.6-1.3C124.5,377.8,124.5,375.7,122.8,374.4z"/><path fill="#FFFFFF" d="M42.9,380.4v33.2c0,4.7,3.4,8.1,7.7,8.1h15.7v-33.2H88v33.2h14.9c4.3,0,7.7-3.8,7.7-8.1v-33.2l-34-26.4 L42.9,380.4z"/><path fill="#2D383F" d="M336.2,383.4c0,20.4-14.5,29.8-28.9,29.8c-15.7,0-28.1-11.1-28.1-28.9c0-18.3,11.9-29.8,28.9-29.8 C325.2,354.9,336.2,366.4,336.2,383.4z M294.2,384.2c0,10.6,5.1,19.1,14,19.1c8.1,0,13.6-8.1,13.6-19.1 c0-8.9-3.8-18.7-13.6-18.7C298,365.1,294.2,374.9,294.2,384.2z"/><path fill="#2D383F" d="M463.8,374c0-7.7,0-13.2-0.4-17.9h12.3l0.4,10.6h0.4c2.6-8.1,9.4-11.9,15.3-11.9c1.3,0,2.1,0,3.4,0.4 v11.5c0,0-2.6,0-4.3,0c-6.8,0.4-11.5,5.5-12.8,11.9c-0.4,1.3-0.4,2.6-0.4,4.3v28.9h-14V374L463.8,374z"/><path fill="#E20031" d="M852.3,374c0-7.7,0-13.2-0.4-17.9h12.3l0.4,10.6h0.4c2.6-8.1,9.4-11.9,15.3-11.9c1.3,0,2.1,0,3.4,0.4 v11.5c0,0-2.6,0-4.3,0c-6.8,0.4-11.5,5.5-12.8,11.9c-0.4,1.3-0.4,2.6-0.4,4.3v28.9h-14V374L852.3,374z"/><path fill="#2D383F" d="M246.1,374c0-7.7,0-13.2-0.4-17.9H258l0.4,10.6h0.4c2.6-8.1,9.4-11.9,15.3-11.9c1.3,0,2.1,0,3.4,0.4 v11.5c0,0-2.6,0-4.3,0c-6.8,0.4-11.5,5.5-12.8,11.9c-0.4,1.3-0.4,2.6-0.4,4.3v28.9h-14L246.1,374L246.1,374z"/><path fill="#2D383F" d="M554.7,356.2l10.2,30.2c1.3,3.4,2.1,7.7,3,11.1h0.4c0.9-3.4,2.1-7.2,3-11.1l8.9-29.8h15.3l-14,38.3 c-7.7,20.8-12.8,30.2-19.6,36.1c-5.5,5.1-11.1,6.8-14.9,7.2l-3.4-11.9c2.6-0.4,5.5-1.7,8.1-3.8c2.6-1.7,6-5.1,7.7-8.9 c0.4-0.9,0.9-1.7,0.9-2.6c0-0.4,0-1.3-0.9-2.6l-20-52.3H554.7L554.7,356.2z"/><path fill="#E20031" d="M671.2,372.7c0-6.4,0-11.9-0.4-16.6h12.3l0.9,8.5h0.4c2.6-4.3,8.5-9.8,17.9-9.8c9.8,0,20,6.4,20,24.2 v33.2h-14v-31.5c0-8.1-3-14-10.6-14c-5.5,0-9.4,3.8-11.1,8.1c-0.4,1.3-0.4,3-0.4,4.7v32.7h-14.5L671.2,372.7L671.2,372.7z"/><path fill="#2D383F" d="M375.8,354.9c-8.5,0-14.9,3.4-19.1,9.8h-0.4l-0.9-8.5H343c0.4,5.1,0.4,11.5,0.4,18.7v59.9h14v-28.9h0.4 c3,4.7,8.9,7.7,15.7,7.7c12.8,0,25.5-9.8,25.5-30.2C399.1,365.9,388.5,354.9,375.8,354.9z M371.9,402.5L371.9,402.5 C371.9,402.5,371.5,402.5,371.9,402.5c-0.4,0-0.4,0-0.9,0c0,0,0,0-0.4,0c-8.5-0.4-13.2-7.7-13.2-18.3c0-9.8,4.7-17.9,14-17.9 s14,8.1,14,17.9C385.5,394.8,380.4,402.1,371.9,402.5z"/><path fill="#E20031" d="M785.1,393.6v-60.4h-14v28.9h-0.4c-3-4.7-8.9-7.7-15.7-7.7c-12.8,0-25.5,9.8-25.5,30.2 c0,17.4,10.6,28.5,23.4,28.5c8.5,0,14.9-3.4,19.1-9.8h0.4l0.9,8.5h12.3C785.5,406.7,785.1,400.8,785.1,393.6z M757.1,402.1 c-8.9,0-14-8.1-14-17.9c0-10.6,5.1-18.3,13.6-18.3l0,0h0.4h0.4c0,0,0,0,0.4,0c8.5,0.4,13.2,7.7,13.2,18.3 C771.1,394,766.4,402.1,757.1,402.1z"/><path fill="#2D383F" d="M214.7,354.9c-8.5,0-14.9,3.4-19.1,9.8h-0.4l-0.9-8.5h-12.3c0.4,5.1,0.4,11.5,0.4,18.7v59.9h14v-28.9h0.4 c3,4.7,8.9,7.7,15.7,7.7c12.8,0,25.5-9.8,25.5-30.2C238,365.9,227.4,354.9,214.7,354.9z M210.8,402.5L210.8,402.5 C210.8,402.5,210.4,402.5,210.8,402.5c-0.4,0-0.4,0-0.9,0c0,0,0,0-0.4,0c-8.5-0.4-13.2-7.7-13.2-18.3c0-9.8,4.7-17.9,14-17.9 c8.9,0,14,8.1,14,17.9C224.4,394.8,219.3,402.1,210.8,402.5z"/><path fill="#2D383F" d="M900.3,404.6c0,4.3-3,7.7-8.1,7.7c-4.7,0-7.7-3.4-7.7-7.7s3.4-7.7,8.1-7.7 C897.3,397,900.3,400.4,900.3,404.6z"/><path fill="#2D383F" d="M450.6,399.9c-4.3,1.7-8.9,2.6-15.3,2.6c-8.9,0-17-4.3-17.4-14.5h37.4c0.4-1.3,0.4-3.4,0.4-6 c0-12.3-6-27.2-24.2-27.2c-17.9,0-27.2,14.5-27.2,30.2c0,17,10.6,28.5,28.9,28.5c6.8,0,12.8-1.3,17.4-2.6L450.6,399.9 L450.6,399.9z M430.6,364.7c9.4,0,11.9,8.5,11.5,13.6h-24.7C418.3,372.3,422.1,364.7,430.6,364.7z"/><path fill="#E20031" d="M621.9,353.2c0-6.8,2.6-12.8,9.4-12.8c2.1,0,3.8,0.4,5.1,0.9v-11.1c-2.1-0.4-4.3-0.9-7.2-0.9 c-4.7,0-10.6,1.7-14.5,5.5c-4.7,4.7-6.8,11.9-6.8,19.1v2.1h-5.1l-4.3,10.6h9.4v45.5h14v-45.5h12.3v-10.6h-12.3V353.2L621.9,353.2 z"/><path fill="#2D383F" d="M956.8,398.7v-20.4c0-12.3-5.1-23.4-23-23.4c-6.8,0-12.8,1.3-17,3.4v10.6c3.8-2.1,9.4-3.8,14.5-3.8 c9.8,0,11.5,6,11.5,9.8v0.9c-20.8,0-33.2,7.2-33.2,21.3c0,8.5,6.4,16.6,17.4,16.6c7.2,0,13.2-3,16.6-7.7h0.4l0.9,6.4h12.8 C956.8,408.4,956.8,403.8,956.8,398.7z M942.8,392.3c0,0.9,0,2.1-0.4,3c-1.3,3.8-5.5,7.7-11.1,7.7c-4.7,0-8.1-2.6-8.1-8.1 c0-8.5,9.4-10.6,19.6-10.6V392.3L942.8,392.3z"/><path fill="#2D383F" d="M1009.1,399.9c-4.3,1.7-8.9,2.6-15.3,2.6c-8.9,0-17-4.3-17.4-14.5h37.4c0.4-1.3,0.4-3.4,0.4-6 c0-12.3-6-27.2-24.2-27.2c-17.9,0-27.2,14.5-27.2,30.2c0,17,10.6,28.5,28.9,28.5c6.8,0,12.8-1.3,17.4-2.6L1009.1,399.9 L1009.1,399.9z M989.6,364.7c9.4,0,11.9,8.5,11.5,13.6h-24.7C977.2,372.3,980.6,364.7,989.6,364.7z"/><path fill="#E20031" d="M839.1,399.9c-4.3,1.7-8.9,2.6-15.3,2.6c-8.9,0-17-4.3-17.4-14.5h37.4c0.4-1.3,0.4-3.4,0.4-6 c0-12.3-6-27.2-24.2-27.2c-17.9,0-27.2,14.5-27.2,30.2c0,17,10.6,28.5,28.9,28.5c6.8,0,12.8-1.3,17.4-2.6L839.1,399.9 L839.1,399.9z M819.1,364.7c9.4,0,11.9,8.5,11.5,13.6h-24.7C806.8,372.3,810.6,364.7,819.1,364.7z"/><path fill="#E20031" d="M658.9,340.4c0,4.3-3,7.7-8.1,7.7c-4.7,0-7.7-3.4-7.7-7.7s3.4-7.7,8.1-7.7 C655.9,332.8,658.9,336.2,658.9,340.4z M644,412.3v-56.1h14.5v56.1H644z"/><path fill="#2D383F" d="M522,340v16.2h10.2l4.7,10.6h-14.5v24.7c0,6.8,1.7,10.2,7.2,10.2c2.6,0,4.3-0.4,5.5-0.9l0.4,11.1 c-2.1,0.9-6,1.3-10.2,1.3c-5.1,0-9.8-1.7-12.3-4.7c-3-3.4-4.3-8.5-4.3-15.7v-26.4H502v-10.2h6.8v-12.8L522,340z"/></svg>
